HIERARCHY
ROOT Hips
{
    OFFSET 0.000000 0.000000 0.000000
    CHANNELS 6 Xposition Yposition Zposition Zrotation Xrotation Yrotation
    JOINT Spine
    {
        OFFSET -0.000000 7.236184 0.000000
        CHANNELS 3 Zrotation Xrotation Yrotation
        JOINT Spine1
        {
            OFFSET -0.000000 20.420147 0.000000
            CHANNELS 3 Zrotation Xrotation Yrotation
            JOINT Neck
            {
                OFFSET -0.000000 20.336288 1.848754
                CHANNELS 3 Zrotation Xrotation Yrotation
                JOINT Head
                {
                    OFFSET -0.000000 12.354461 -1.764923
                    CHANNELS 3 Zrotation Xrotation Yrotation
                    End Site
                    {
                        OFFSET -0.000000 22.061537 0.000000
                    }
                }
            }
            JOINT LeftShoulder
            {
                OFFSET 3.573296 18.396038 -0.314103
                CHANNELS 3 Zrotation Xrotation Yrotation
                JOINT LeftArm
                {
                    OFFSET 10.880760 0.000000 0.000000
                    CHANNELS 3 Zrotation Xrotation Yrotation
                    JOINT LeftForeArm
                    {
                        OFFSET 27.185530 0.000000 0.000000
                        CHANNELS 3 Zrotation Xrotation Yrotation
                        JOINT LeftHand
                        {
                            OFFSET 27.825975 0.000000 0.000000
                            CHANNELS 3 Zrotation Xrotation Yrotation
                            End Site
                            {
                                OFFSET 13.236923 0.000000 0.000000
                            }
                        }
                    }
                }
            }
            JOINT RightShoulder
            {
                OFFSET -3.474926 18.396038 -0.314103
                CHANNELS 3 Zrotation Xrotation Yrotation
                JOINT RightArm
                {
                    OFFSET -10.880760 0.000000 0.000000
                    CHANNELS 3 Zrotation Xrotation Yrotation
                    JOINT RightForeArm
                    {
                        OFFSET -27.185530 0.000000 0.000000
                        CHANNELS 3 Zrotation Xrotation Yrotation
                        JOINT RightHand
                        {
                            OFFSET -27.825975 0.000000 0.000000
                            CHANNELS 3 Zrotation Xrotation Yrotation
                            End Site
                            {
                                OFFSET -13.236923 0.000000 0.000000
                            }
                        }
                    }
                }
            }
        }
    }
    JOINT LeftUpLeg
    {
        OFFSET 8.824615 0.000000 0.000000
        CHANNELS 3 Zrotation Xrotation Yrotation
        JOINT LeftLeg
        {
            OFFSET -0.000000 -35.111282 0.000000
            CHANNELS 3 Zrotation Xrotation Yrotation
            JOINT LeftFoot
            {
                OFFSET -0.000000 -42.324711 0.000000
                CHANNELS 3 Zrotation Xrotation Yrotation
                JOINT LeftToeBase
                {
                    OFFSET -0.000000 -5.735999 13.236923
                    CHANNELS 3 Zrotation Xrotation Yrotation
                    End Site
                    {
                        OFFSET -0.000000 0.000000 3.529846
                    }
                }
            }
        }
    }
    JOINT RightUpLeg
    {
        OFFSET -8.824615 0.000000 0.000000
        CHANNELS 3 Zrotation Xrotation Yrotation
        JOINT RightLeg
        {
            OFFSET -0.000000 -35.111282 0.000000
            CHANNELS 3 Zrotation Xrotation Yrotation
            JOINT RightFoot
            {
                OFFSET -0.000000 -42.324711 0.000000
                CHANNELS 3 Zrotation Xrotation Yrotation
                JOINT RightToeBase
                {
                    OFFSET -0.000000 -5.735999 13.236923
                    CHANNELS 3 Zrotation Xrotation Yrotation
                    End Site
                    {
                        OFFSET -0.000000 0.000000 3.529846
                    }
                }
            }
        }
    }
}
MOTION
Frames:    4
Frame Time:    0.008333
-2.147886    88.571571    84.731285    19.664902    25.030138    -106.265106    -0.866574    -6.300949    -1.990173    5.017296    6.866910    -2.243593    13.040657    19.003113    -21.110636    21.290274    3.876706    -19.466442    16.125984    -4.653918    -14.496793    -17.032734    18.920692    -53.247501    34.975502    -26.075878    -98.277191    51.313347    10.650261    -12.442238    -5.056354    9.757560    2.528637    27.203976    40.714172    21.777727    -20.551212    -2.685167    39.225727    -36.102974    2.902087    5.591598    30.252365    -27.215578    11.129298    0.019051    30.248102    14.967430    -7.336758    -2.399901    -17.424368    1.152993    -5.375674    -1.291104    -34.007542    -40.557785    -19.762678    49.328693    66.073776    -42.736099    12.337088    15.214478    -7.614273    -0.637833    -6.007745    0.695897    
-2.078440    88.802406    84.727646    19.998844    25.812914    -106.325577    -0.623029    -6.133574    -2.054847    5.568731    6.831766    -2.354041    13.031616    18.982164    -21.098310    21.438751    3.929894    -19.450989    16.154261    -4.797840    -14.679953    -16.704739    18.824276    -53.227093    34.652847    -26.986227    -100.258690    51.117023    10.812758    -12.597051    -4.837783    9.650648    2.666661    26.047976    40.301212    22.177536    -19.698172    -2.225554    37.602654    -36.048920    2.671685    5.780632    31.383429    -27.253698    11.810828    -0.149609    29.997665    15.262991    -7.438127    -1.917862    -17.888794    1.267723    -5.291993    -1.419338    -36.314426    -40.840313    -20.996908    51.889751    67.006691    -44.944359    11.928720    15.269394    -7.361187    -0.573977    -6.576909    0.626779    
-2.012979    89.008461    84.721306    20.331146    26.599491    -106.404640    -0.371287    -5.973914    -2.111466    6.120071    6.809709    -2.456517    13.003736    18.958178    -21.089315    21.597885    3.968971    -19.436329    16.138838    -4.898001    -14.844526    -16.420162    18.698027    -53.200409    34.267143    -27.822042    -102.197868    50.976826    10.955791    -12.749133    -4.595777    9.555620    2.803113    24.939943    39.801857    22.555462    -18.812418    -1.808570    35.944492    -35.969822    2.418169    5.959232    32.528088    -27.298466    12.528626    -0.315862    29.803116    15.549417    -7.511364    -1.503736    -18.344189    1.379618    -5.193303    -1.544310    -38.635315    -41.020412    -22.235474    54.094116    67.829964    -46.810303    11.627986    15.273987    -7.181091    -0.533524    -7.150802    0.583127    
-1.952052    89.187691    84.712479    20.659542    27.382828    -106.503998    -0.114606    -5.823863    -2.158684    6.667246    6.802163    -2.549468    12.957707    18.930616    -21.083822    21.767054    3.993843    -19.422604    16.081186    -4.954238    -14.989917    -16.175972    18.546450    -53.169216    33.832691    -28.577837    -104.074173    50.894287    11.079891    -12.895883    -4.334383    9.472746    2.937870    23.895411    39.215317    22.903505    -17.908232    -1.442293    34.267334    -35.858406    2.145007    6.122389    33.677097    -27.347929    13.275162    -0.478372    29.666670    15.822580    -7.555207    -1.162557    -18.784372    1.487890    -5.081604    -1.665134    -40.933872    -41.098614    -23.456423    55.804264    68.544014    -48.206451    11.471618    15.215678    -7.085622    -0.520125    -7.703108    0.568978    
